<svg viewBox="0 0 32 32" xmlns="http://www.w3.org/2000/svg"><path d="m30.94 15.66a16.4 16.4 0 0 0 -5.73-7.45l4.79-4.8-1.41-1.41-26.59 26.59 1.41 1.41 5.1-5.09a15.38 15.38 0 0 0 7.49 2.09 16.69 16.69 0 0 0 14.94-10.66 1 1 0 0 0 0-.68zm-14.94 6.84a6.46 6.46 0 0 1 -3.83-1.26l1.83-1.81a4 4 0 0 0 5.43-5.43l1.81-1.81a6.49 6.49 0 0 1 -5.24 10.31z"/><path d="m4.53 21.81 5-5a6.84 6.84 0 0 1 -.03-.81 6.51 6.51 0 0 1 6.5-6.5 6.84 6.84 0 0 1 .79.05l3.78-3.77a14.39 14.39 0 0 0 -4.57-.78 16.69 16.69 0 0 0 -14.94 10.66 1 1 0 0 0 0 .68 15.86 15.86 0 0 0 3.47 5.47z"/><path d="m0 0h32v32h-32z" fill="none"/></svg>